<?xml version="1.0" encoding="UTF-8" standalone="no"?><svg xmlns="http://www.w3.org/2000/svg" xmlns:xlink="http://www.w3.org/1999/xlink" contentScriptType="application/ecmascript" contentStyleType="text/css" height="192px" preserveAspectRatio="none" style="width:569px;height:192px;" version="1.1" viewBox="0 0 569 192" width="569px" zoomAndPan="magnify"><defs><filter height="300%" id="f1us2g7w2joyss" width="300%" x="-1" y="-1"><feGaussianBlur result="blurOut" stdDeviation="2.0"/><feColorMatrix in="blurOut" result="blurOut2" type="matrix" values="0 0 0 0 0 0 0 0 0 0 0 0 0 0 0 0 0 0 .4 0"/><feOffset dx="4.0" dy="4.0" in="blurOut2" result="blurOut3"/><feBlend in="SourceGraphic" in2="blurOut3" mode="normal"/></filter></defs><g><!--MD5=[feed9b0dde5a9b7bec84db500e81deeb]
cluster postgres-virtual-schema (repo)--><polygon fill="#FFFFFF" filter="url(#f1us2g7w2joyss)" points="22,81,275,81,282,103.2969,285,103.2969,285,180,22,180,22,81" style="stroke: #000000; stroke-width: 1.5;"/><line style="stroke: #000000; stroke-width: 1.5;" x1="22" x2="282" y1="103.2969" y2="103.2969"/><text fill="#000000" font-family="sans-serif" font-size="14" font-weight="bold" lengthAdjust="spacingAndGlyphs" textLength="247" x="26" y="95.9951">postgres-virtual-schema (repo)</text><!--MD5=[0837bf6b8166dee3ad21c2ff7876e1da]
cluster mysql-virtual-schema (repo)--><polygon fill="#FFFFFF" filter="url(#f1us2g7w2joyss)" points="309,81,537,81,544,103.2969,547,103.2969,547,180,309,180,309,81" style="stroke: #000000; stroke-width: 1.5;"/><line style="stroke: #000000; stroke-width: 1.5;" x1="309" x2="544" y1="103.2969" y2="103.2969"/><text fill="#000000" font-family="sans-serif" font-size="14" font-weight="bold" lengthAdjust="spacingAndGlyphs" textLength="222" x="313" y="95.9951">mysql-virtual-schema (repo)</text><!--MD5=[308d917e6238a716f0a106b3236f6dee]
class postgres-virtual-schema (repo).postgres-extension-definition--><rect fill="#FEFECE" filter="url(#f1us2g7w2joyss)" height="48" id="postgres-virtual-schema (repo).postgres-extension-definition" style="stroke: #A80036; stroke-width: 1.5;" width="215" x="53.5" y="116"/><ellipse cx="68.5" cy="132" fill="#ADD1B2" rx="11" ry="11" style="stroke: #A80036; stroke-width: 1.0;"/><path d="M71.4688,137.6406 Q70.8906,137.9375 70.25,138.0781 Q69.6094,138.2344 68.9063,138.2344 Q66.4063,138.2344 65.0781,136.5938 Q63.7656,134.9375 63.7656,131.8125 Q63.7656,128.6875 65.0781,127.0313 Q66.4063,125.375 68.9063,125.375 Q69.6094,125.375 70.25,125.5313 Q70.9063,125.6875 71.4688,125.9844 L71.4688,128.7031 Q70.8438,128.125 70.25,127.8594 Q69.6563,127.5781 69.0313,127.5781 Q67.6875,127.5781 67,128.6563 Q66.3125,129.7188 66.3125,131.8125 Q66.3125,133.9063 67,134.9844 Q67.6875,136.0469 69.0313,136.0469 Q69.6563,136.0469 70.25,135.7813 Q70.8438,135.5 71.4688,134.9219 L71.4688,137.6406 Z "/><text fill="#000000" font-family="sans-serif" font-size="12" lengthAdjust="spacingAndGlyphs" textLength="183" x="82.5" y="136.1543">postgres-extension-definition</text><line style="stroke: #A80036; stroke-width: 1.5;" x1="54.5" x2="267.5" y1="148" y2="148"/><line style="stroke: #A80036; stroke-width: 1.5;" x1="54.5" x2="267.5" y1="156" y2="156"/><!--MD5=[6a06fbba04b46d2145d0b8e4ee8f2680]
class mysql-virtual-schema (repo).MySqlExtensionDefinition--><rect fill="#FEFECE" filter="url(#f1us2g7w2joyss)" height="48" id="mysql-virtual-schema (repo).MySqlExtensionDefinition" style="stroke: #A80036; stroke-width: 1.5;" width="187" x="324.5" y="116"/><ellipse cx="339.5" cy="132" fill="#ADD1B2" rx="11" ry="11" style="stroke: #A80036; stroke-width: 1.0;"/><path d="M342.4688,137.6406 Q341.8906,137.9375 341.25,138.0781 Q340.6094,138.2344 339.9063,138.2344 Q337.4063,138.2344 336.0781,136.5938 Q334.7656,134.9375 334.7656,131.8125 Q334.7656,128.6875 336.0781,127.0313 Q337.4063,125.375 339.9063,125.375 Q340.6094,125.375 341.25,125.5313 Q341.9063,125.6875 342.4688,125.9844 L342.4688,128.7031 Q341.8438,128.125 341.25,127.8594 Q340.6563,127.5781 340.0313,127.5781 Q338.6875,127.5781 338,128.6563 Q337.3125,129.7188 337.3125,131.8125 Q337.3125,133.9063 338,134.9844 Q338.6875,136.0469 340.0313,136.0469 Q340.6563,136.0469 341.25,135.7813 Q341.8438,135.5 342.4688,134.9219 L342.4688,137.6406 Z "/><text fill="#000000" font-family="sans-serif" font-size="12" lengthAdjust="spacingAndGlyphs" textLength="155" x="353.5" y="136.1543">MySqlExtensionDefinition</text><line style="stroke: #A80036; stroke-width: 1.5;" x1="325.5" x2="510.5" y1="148" y2="148"/><line style="stroke: #A80036; stroke-width: 1.5;" x1="325.5" x2="510.5" y1="156" y2="156"/><!--MD5=[fb82ad3db51c8b4b7df5773d6a1c8f00]
class ExasolExtension--><rect fill="#FEFECE" filter="url(#f1us2g7w2joyss)" height="48" id="ExasolExtension" style="stroke: #A80036; stroke-width: 1.5;" width="133" x="222.5" y="8"/><ellipse cx="237.5" cy="24" fill="#B4A7E5" rx="11" ry="11" style="stroke: #A80036; stroke-width: 1.0;"/><path d="M233.4219,19.7656 L233.4219,17.6094 L240.8125,17.6094 L240.8125,19.7656 L238.3438,19.7656 L238.3438,27.8438 L240.8125,27.8438 L240.8125,30 L233.4219,30 L233.4219,27.8438 L235.8906,27.8438 L235.8906,19.7656 L233.4219,19.7656 Z "/><text fill="#000000" font-family="sans-serif" font-size="12" font-style="italic" lengthAdjust="spacingAndGlyphs" textLength="101" x="251.5" y="28.1543">ExasolExtension</text><line style="stroke: #A80036; stroke-width: 1.5;" x1="223.5" x2="354.5" y1="40" y2="40"/><line style="stroke: #A80036; stroke-width: 1.5;" x1="223.5" x2="354.5" y1="48" y2="48"/><!--MD5=[9dcf9b10056c1e9d2634ad4a99ea0c39]
reverse link ExasolExtension to postgres-virtual-schema (repo).postgres-extension-definition--><path d="M257.14,59.39 C236.27,76.67 209.24,99.05 189.16,115.68 " fill="none" id="ExasolExtension&lt;-postgres-virtual-schema (repo).postgres-extension-definition" style="stroke: #A80036; stroke-width: 1.0;"/><polygon fill="#A80036" points="261.23,56,251.7436,58.6472,257.3749,59.184,256.838,64.8154,261.23,56" style="stroke: #A80036; stroke-width: 1.0;"/><!--MD5=[a82ec54a7fb9dda78075dcd1a1bea048]
reverse link ExasolExtension to mysql-virtual-schema (repo).MySqlExtensionDefinition--><path d="M321.11,59.39 C342.14,76.67 369.38,99.05 389.62,115.68 " fill="none" id="ExasolExtension&lt;-mysql-virtual-schema (repo).MySqlExtensionDefinition" style="stroke: #A80036; stroke-width: 1.0;"/><polygon fill="#A80036" points="316.99,56,321.398,64.8074,320.8509,59.177,326.4812,58.63,316.99,56" style="stroke: #A80036; stroke-width: 1.0;"/><!--MD5=[021318240278a6d75273ff8ddc589b9b]
@startuml
interface ExasolExtension {

}

ExasolExtension <- - "postgres-virtual-schema (repo).postgres-extension-definition"
ExasolExtension <- - "mysql-virtual-schema (repo).MySqlExtensionDefinition"
@enduml

PlantUML version 1.2020.02(Sun Mar 01 10:22:07 UTC 2020)
(GPL source distribution)
Java Runtime: OpenJDK Runtime Environment
JVM: OpenJDK 64-Bit Server VM
Java Version: 17.0.14+7
Operating System: Linux
Default Encoding: UTF-8
Language: en
Country: null
--></g></svg>