<?xml version="1.0" encoding="UTF-8" standalone="no"?><svg xmlns="http://www.w3.org/2000/svg" xmlns:xlink="http://www.w3.org/1999/xlink" contentScriptType="application/ecmascript" contentStyleType="text/css" height="306px" preserveAspectRatio="none" style="width:1087px;height:306px;" version="1.1" viewBox="0 0 1087 306" width="1087px" zoomAndPan="magnify"><defs><filter height="300%" id="f22trp0exg6nl" width="300%" x="-1" y="-1"><feGaussianBlur result="blurOut" stdDeviation="2.0"/><feColorMatrix in="blurOut" result="blurOut2" type="matrix" values="0 0 0 0 0 0 0 0 0 0 0 0 0 0 0 0 0 0 .4 0"/><feOffset dx="4.0" dy="4.0" in="blurOut2" result="blurOut3"/><feBlend in="SourceGraphic" in2="blurOut3" mode="normal"/></filter></defs><g><!--cluster prostgres-virtual-schema release 2.0.2--><rect fill="#FFFFFF" filter="url(#f22trp0exg6nl)" height="87" rx="35" ry="35" style="stroke: #000000; stroke-width: 1.5;" width="479" x="70" y="24"/><text fill="#000000" font-family="sans-serif" font-size="14" font-weight="bold" lengthAdjust="spacingAndGlyphs" textLength="309" x="155" y="43.9951">prostgres-virtual-schema release 2.0.2</text><!--cluster prostgres-virtual-schema release 1.0.0--><rect fill="#FFFFFF" filter="url(#f22trp0exg6nl)" height="87" rx="35" ry="35" style="stroke: #000000; stroke-width: 1.5;" width="479" x="597" y="24"/><text fill="#000000" font-family="sans-serif" font-size="14" font-weight="bold" lengthAdjust="spacingAndGlyphs" textLength="309" x="682" y="43.9951">prostgres-virtual-schema release 1.0.0</text><!--cluster Exasol SaaS backend--><polygon fill="#FFFFFF" filter="url(#f22trp0exg6nl)" points="22,145,32,135,340,135,340,284,330,294,22,294,22,145" style="stroke: #000000; stroke-width: 1.5;"/><line style="stroke: #000000; stroke-width: 1.5;" x1="330" x2="339" y1="145" y2="136"/><line style="stroke: #000000; stroke-width: 1.5;" x1="22" x2="330" y1="145" y2="145"/><line style="stroke: #000000; stroke-width: 1.5;" x1="330" x2="330" y1="145" y2="294"/><text fill="#000000" font-family="sans-serif" font-size="14" font-weight="bold" lengthAdjust="spacingAndGlyphs" textLength="165" x="94.5" y="160.9951">Exasol SaaS backend</text><!--cluster Installers--><rect fill="#FFFFFF" filter="url(#f22trp0exg6nl)" height="87" rx="35" ry="35" style="stroke: #000000; stroke-width: 1.5;" width="270" x="46" y="183"/><text fill="#000000" font-family="sans-serif" font-size="14" font-weight="bold" lengthAdjust="spacingAndGlyphs" textLength="72" x="145" y="202.9951">Installers</text><!--cluster Exasol cluster (per customer)--><polygon fill="#FFFFFF" filter="url(#f22trp0exg6nl)" points="364,145,374,135,827,135,827,284,817,294,364,294,364,145" style="stroke: #000000; stroke-width: 1.5;"/><line style="stroke: #000000; stroke-width: 1.5;" x1="817" x2="826" y1="145" y2="136"/><line style="stroke: #000000; stroke-width: 1.5;" x1="364" x2="817" y1="145" y2="145"/><line style="stroke: #000000; stroke-width: 1.5;" x1="817" x2="817" y1="145" y2="294"/><text fill="#000000" font-family="sans-serif" font-size="14" font-weight="bold" lengthAdjust="spacingAndGlyphs" textLength="234" x="474.5" y="160.9951">Exasol cluster (per customer)</text><!--cluster BucketFS--><rect fill="#FFFFFF" filter="url(#f22trp0exg6nl)" height="87" rx="35" ry="35" style="stroke: #000000; stroke-width: 1.5;" width="415" x="388" y="183"/><text fill="#000000" font-family="sans-serif" font-size="14" font-weight="bold" lengthAdjust="spacingAndGlyphs" textLength="73" x="559" y="202.9951">BucketFS</text><!--entity installerInRepo--><polygon fill="#FEFECE" filter="url(#f22trp0exg6nl)" points="86.5,59,86.5,95.2969,323.5,95.2969,323.5,69,313.5,59,86.5,59" style="stroke: #000000; stroke-width: 1.5;"/><path d="M313.5,59 L313.5,69 L323.5,69 " fill="#FEFECE" style="stroke: #000000; stroke-width: 1.5;"/><text fill="#000000" font-family="sans-serif" font-size="14" lengthAdjust="spacingAndGlyphs" textLength="217" x="96.5" y="81.9951">postgres-extension-def-2.0.2.js</text><!--entity jarV2InRepo--><polygon fill="#FEFECE" filter="url(#f22trp0exg6nl)" points="359,59,359,95.2969,533,95.2969,533,69,523,59,359,59" style="stroke: #000000; stroke-width: 1.5;"/><path d="M523,59 L523,69 L533,69 " fill="#FEFECE" style="stroke: #000000; stroke-width: 1.5;"/><text fill="#000000" font-family="sans-serif" font-size="14" lengthAdjust="spacingAndGlyphs" textLength="154" x="369" y="81.9951">postgresql-vs-2.0.2.jar</text><!--entity postgres-extension-def-1.0.0.js--><polygon fill="#FEFECE" filter="url(#f22trp0exg6nl)" points="822.5,59,822.5,95.2969,1059.5,95.2969,1059.5,69,1049.5,59,822.5,59" style="stroke: #000000; stroke-width: 1.5;"/><path d="M1049.5,59 L1049.5,69 L1059.5,69 " fill="#FEFECE" style="stroke: #000000; stroke-width: 1.5;"/><text fill="#000000" font-family="sans-serif" font-size="14" lengthAdjust="spacingAndGlyphs" textLength="217" x="832.5" y="81.9951">postgres-extension-def-1.0.0.js</text><!--entity jarV1InRepo--><polygon fill="#FEFECE" filter="url(#f22trp0exg6nl)" points="613,59,613,95.2969,787,95.2969,787,69,777,59,613,59" style="stroke: #000000; stroke-width: 1.5;"/><path d="M777,59 L777,69 L787,69 " fill="#FEFECE" style="stroke: #000000; stroke-width: 1.5;"/><text fill="#000000" font-family="sans-serif" font-size="14" lengthAdjust="spacingAndGlyphs" textLength="154" x="623" y="81.9951">postgresql-vs-1.0.0.jar</text><!--entity installerInBucketFS--><polygon fill="#FEFECE" filter="url(#f22trp0exg6nl)" points="62.5,218,62.5,254.2969,299.5,254.2969,299.5,228,289.5,218,62.5,218" style="stroke: #000000; stroke-width: 1.5;"/><path d="M289.5,218 L289.5,228 L299.5,228 " fill="#FEFECE" style="stroke: #000000; stroke-width: 1.5;"/><text fill="#000000" font-family="sans-serif" font-size="14" lengthAdjust="spacingAndGlyphs" textLength="217" x="72.5" y="240.9951">postgres-extension-def-2.0.2.js</text><!--entity jarV2InBucketFs--><polygon fill="#FEFECE" filter="url(#f22trp0exg6nl)" points="404,218,404,254.2969,578,254.2969,578,228,568,218,404,218" style="stroke: #000000; stroke-width: 1.5;"/><path d="M568,218 L568,228 L578,228 " fill="#FEFECE" style="stroke: #000000; stroke-width: 1.5;"/><text fill="#000000" font-family="sans-serif" font-size="14" lengthAdjust="spacingAndGlyphs" textLength="154" x="414" y="240.9951">postgresql-vs-2.0.2.jar</text><!--entity jarV1InBucketFS--><polygon fill="#FEFECE" filter="url(#f22trp0exg6nl)" points="613,218,613,254.2969,787,254.2969,787,228,777,218,613,218" style="stroke: #000000; stroke-width: 1.5;"/><path d="M777,218 L777,228 L787,228 " fill="#FEFECE" style="stroke: #000000; stroke-width: 1.5;"/><text fill="#000000" font-family="sans-serif" font-size="14" lengthAdjust="spacingAndGlyphs" textLength="154" x="623" y="240.9951">postgresql-vs-1.0.0.jar</text><!--link installerInRepo to installerInBucketFS--><path d="M202.39,95.1 C198.02,123.65 189.25,181 184.41,212.69 " fill="none" id="installerInRepo-installerInBucketFS" style="stroke: #A80036; stroke-width: 1.0;"/><polygon fill="#A80036" points="183.61,217.92,188.9266,209.6294,184.3671,212.9776,181.0188,208.4181,183.61,217.92" style="stroke: #A80036; stroke-width: 1.0;"/><!--link jarV2InRepo to jarV2InBucketFs--><path d="M450.9,95.1 C459.12,123.77 475.66,181.48 484.72,213.08 " fill="none" id="jarV2InRepo-jarV2InBucketFs" style="stroke: #A80036; stroke-width: 1.0;"/><polygon fill="#A80036" points="486.1,217.92,487.4545,208.1647,484.717,213.1151,479.7666,210.3776,486.1,217.92" style="stroke: #A80036; stroke-width: 1.0;"/><!--link jarV1InRepo to jarV1InBucketFS--><path d="M700,95.1 C700,123.65 700,181 700,212.69 " fill="none" id="jarV1InRepo-jarV1InBucketFS" style="stroke: #A80036; stroke-width: 1.0;"/><polygon fill="#A80036" points="700,217.92,704,208.92,700,212.92,696,208.92,700,217.92" style="stroke: #A80036; stroke-width: 1.0;"/><!--
@startuml
storage "prostgres-virtual-schema release 2.0.2" {
  file installerInRepo as "postgres-extension-def-2.0.2.js"
  file jarV2InRepo as "postgresql-vs-2.0.2.jar"
}

storage "prostgres-virtual-schema release 1.0.0" {
  file "postgres-extension-def-1.0.0.js"
  file jarV1InRepo as "postgresql-vs-1.0.0.jar"
}

node "Exasol SaaS backend" {
  storage Installers {
    file installerInBucketFS as "postgres-extension-def-2.0.2.js"
  }
}

node "Exasol cluster (per customer)" {
  storage BucketFS {
    file jarV2InBucketFs as "postgresql-vs-2.0.2.jar"
    file jarV1InBucketFS as "postgresql-vs-1.0.0.jar"
  }
}

installerInRepo - -> installerInBucketFS
jarV2InRepo - -> jarV2InBucketFs
jarV1InRepo - -> jarV1InBucketFS
@enduml

PlantUML version 1.2018.13(Mon Nov 26 17:11:51 UTC 2018)
(GPL source distribution)
Java Runtime: OpenJDK Runtime Environment
JVM: OpenJDK 64-Bit Server VM
Java Version: 11.0.15+10
Operating System: Linux
OS Version: 5.15.0-1014-azure
Default Encoding: UTF-8
Language: en
Country: null
--></g></svg>