<?xml version="1.0" encoding="UTF-8" standalone="no"?><svg xmlns="http://www.w3.org/2000/svg" xmlns:xlink="http://www.w3.org/1999/xlink" contentScriptType="application/ecmascript" contentStyleType="text/css" height="539px" preserveAspectRatio="none" style="width:1086px;height:539px;" version="1.1" viewBox="0 0 1086 539" width="1086px" zoomAndPan="magnify"><defs><filter height="300%" id="fanfxaqn1o6b8" width="300%" x="-1" y="-1"><feGaussianBlur result="blurOut" stdDeviation="2.0"/><feColorMatrix in="blurOut" result="blurOut2" type="matrix" values="0 0 0 0 0 0 0 0 0 0 0 0 0 0 0 0 0 0 .4 0"/><feOffset dx="4.0" dy="4.0" in="blurOut2" result="blurOut3"/><feBlend in="SourceGraphic" in2="blurOut3" mode="normal"/></filter></defs><g><!--MD5=[0afd3c104dfcdc5d189f3a58f7dc5dd7]
cluster prostgres-virtual-schema release 2.0.2--><rect fill="#FFFFFF" filter="url(#fanfxaqn1o6b8)" height="87" rx="35" ry="35" style="stroke: #000000; stroke-width: 1.5;" width="443" x="489" y="232"/><text fill="#000000" font-family="sans-serif" font-size="14" font-weight="bold" lengthAdjust="spacingAndGlyphs" textLength="309" x="556" y="251.9951">prostgres-virtual-schema release 2.0.2</text><!--MD5=[0888960b4510e3049d77a422647bf4f6]
cluster prostgres-virtual-schema release 1.0.0--><rect fill="#FFFFFF" filter="url(#fanfxaqn1o6b8)" height="87" rx="35" ry="35" style="stroke: #000000; stroke-width: 1.5;" width="443" x="22" y="232"/><text fill="#000000" font-family="sans-serif" font-size="14" font-weight="bold" lengthAdjust="spacingAndGlyphs" textLength="309" x="89" y="251.9951">prostgres-virtual-schema release 1.0.0</text><!--MD5=[58f14f52fd3ad0899d9fd1d174199f9a]
cluster Extension Registry--><polygon fill="#FFFFFF" filter="url(#fanfxaqn1o6b8)" points="674,34,684,24,956,24,956,173,946,183,674,183,674,34" style="stroke: #000000; stroke-width: 1.5;"/><line style="stroke: #000000; stroke-width: 1.5;" x1="946" x2="955" y1="34" y2="25"/><line style="stroke: #000000; stroke-width: 1.5;" x1="674" x2="946" y1="34" y2="34"/><line style="stroke: #000000; stroke-width: 1.5;" x1="946" x2="946" y1="34" y2="183"/><text fill="#000000" font-family="sans-serif" font-size="14" font-weight="bold" lengthAdjust="spacingAndGlyphs" textLength="147" x="737.5" y="49.9951">Extension Registry</text><!--MD5=[3307ae0b577acea5c0261040aab4df4e]
cluster Extension Definitions--><rect fill="#FFFFFF" filter="url(#fanfxaqn1o6b8)" height="87" rx="35" ry="35" style="stroke: #000000; stroke-width: 1.5;" width="234" x="698" y="72"/><text fill="#000000" font-family="sans-serif" font-size="14" font-weight="bold" lengthAdjust="spacingAndGlyphs" textLength="166" x="732" y="91.9951">Extension Definitions</text><!--MD5=[f3340d8e856cbe8a19a4673a46cefb96]
cluster Exasol SaaS--><polygon fill="#FFFFFF" filter="url(#fanfxaqn1o6b8)" points="136,378,146,368,599,368,599,517,589,527,136,527,136,378" style="stroke: #000000; stroke-width: 1.5;"/><line style="stroke: #000000; stroke-width: 1.5;" x1="589" x2="598" y1="378" y2="369"/><line style="stroke: #000000; stroke-width: 1.5;" x1="136" x2="589" y1="378" y2="378"/><line style="stroke: #000000; stroke-width: 1.5;" x1="589" x2="589" y1="378" y2="527"/><text fill="#000000" font-family="sans-serif" font-size="14" font-weight="bold" lengthAdjust="spacingAndGlyphs" textLength="93" x="317" y="393.9951">Exasol SaaS</text><!--MD5=[9783b8c4a6a68441616f37e357eb25d4]
cluster BucketFS--><rect fill="#FFFFFF" filter="url(#fanfxaqn1o6b8)" height="87" rx="35" ry="35" style="stroke: #000000; stroke-width: 1.5;" width="415" x="160" y="416"/><text fill="#000000" font-family="sans-serif" font-size="14" font-weight="bold" lengthAdjust="spacingAndGlyphs" textLength="73" x="331" y="435.9951">BucketFS</text><!--MD5=[406cb604f628b2b9801424de1b88f77f]
entity installerInRepo--><polygon fill="#FEFECE" filter="url(#fanfxaqn1o6b8)" points="714,267,714,303.2969,916,303.2969,916,277,906,267,714,267" style="stroke: #000000; stroke-width: 1.5;"/><path d="M906,267 L906,277 L916,277 " fill="#FEFECE" style="stroke: #000000; stroke-width: 1.5;"/><text fill="#000000" font-family="sans-serif" font-size="14" lengthAdjust="spacingAndGlyphs" textLength="182" x="724" y="289.9951">postgresql-vs-extension.js</text><!--MD5=[e33e9c56159444c2628530189ba3ee52]
entity jarV2InRepo--><polygon fill="#FEFECE" filter="url(#fanfxaqn1o6b8)" points="505,267,505,303.2969,679,303.2969,679,277,669,267,505,267" style="stroke: #000000; stroke-width: 1.5;"/><path d="M669,267 L669,277 L679,277 " fill="#FEFECE" style="stroke: #000000; stroke-width: 1.5;"/><text fill="#000000" font-family="sans-serif" font-size="14" lengthAdjust="spacingAndGlyphs" textLength="154" x="515" y="289.9951">postgresql-vs-2.0.2.jar</text><!--MD5=[cc79983e0445dbb7adaa16ef9efa25e7]
entity postgresql-vs-extension.js--><polygon fill="#FEFECE" filter="url(#fanfxaqn1o6b8)" points="247,267,247,303.2969,449,303.2969,449,277,439,267,247,267" style="stroke: #000000; stroke-width: 1.5;"/><path d="M439,267 L439,277 L449,277 " fill="#FEFECE" style="stroke: #000000; stroke-width: 1.5;"/><text fill="#000000" font-family="sans-serif" font-size="14" lengthAdjust="spacingAndGlyphs" textLength="182" x="257" y="289.9951">postgresql-vs-extension.js</text><!--MD5=[193c4bd5842ba5b9a0b49af30fca5bf8]
entity jarV1InRepo--><polygon fill="#FEFECE" filter="url(#fanfxaqn1o6b8)" points="38,267,38,303.2969,212,303.2969,212,277,202,267,38,267" style="stroke: #000000; stroke-width: 1.5;"/><path d="M202,267 L202,277 L212,277 " fill="#FEFECE" style="stroke: #000000; stroke-width: 1.5;"/><text fill="#000000" font-family="sans-serif" font-size="14" lengthAdjust="spacingAndGlyphs" textLength="154" x="48" y="289.9951">postgresql-vs-1.0.0.jar</text><!--MD5=[f0b47c356abf651342ea30ade624b033]
entity installerInBucketFS--><polygon fill="#FEFECE" filter="url(#fanfxaqn1o6b8)" points="714,107,714,143.2969,916,143.2969,916,117,906,107,714,107" style="stroke: #000000; stroke-width: 1.5;"/><path d="M906,107 L906,117 L916,117 " fill="#FEFECE" style="stroke: #000000; stroke-width: 1.5;"/><text fill="#000000" font-family="sans-serif" font-size="14" lengthAdjust="spacingAndGlyphs" textLength="182" x="724" y="129.9951">postgresql-vs-extension.js</text><!--MD5=[248db75129bc5e2ebf0bf8888da4a0c4]
entity jarV2InBucketFs--><polygon fill="#FEFECE" filter="url(#fanfxaqn1o6b8)" points="385,451,385,487.2969,559,487.2969,559,461,549,451,385,451" style="stroke: #000000; stroke-width: 1.5;"/><path d="M549,451 L549,461 L559,461 " fill="#FEFECE" style="stroke: #000000; stroke-width: 1.5;"/><text fill="#000000" font-family="sans-serif" font-size="14" lengthAdjust="spacingAndGlyphs" textLength="154" x="395" y="473.9951">postgresql-vs-2.0.2.jar</text><!--MD5=[b0d36afaac9880f14e5230a12116bdbf]
entity jarV1InBucketFS--><polygon fill="#FEFECE" filter="url(#fanfxaqn1o6b8)" points="176,451,176,487.2969,350,487.2969,350,461,340,451,176,451" style="stroke: #000000; stroke-width: 1.5;"/><path d="M340,451 L340,461 L350,461 " fill="#FEFECE" style="stroke: #000000; stroke-width: 1.5;"/><text fill="#000000" font-family="sans-serif" font-size="14" lengthAdjust="spacingAndGlyphs" textLength="154" x="186" y="473.9951">postgresql-vs-1.0.0.jar</text><!--MD5=[186a75ba5692af07c339b1e8238809e9]
link installerInBucketFS to installerInRepo--><path d="M815,143.21 C815,171.94 815,229.66 815,261.55 " fill="none" id="installerInBucketFS-&gt;installerInRepo" style="stroke: #A80036; stroke-width: 1.0;"/><polygon fill="#A80036" points="815,266.81,819,257.81,815,261.81,811,257.81,815,266.81" style="stroke: #A80036; stroke-width: 1.0;"/><text fill="#000000" font-family="sans-serif" font-size="13" lengthAdjust="spacingAndGlyphs" textLength="258" x="816" y="212.0669">Update reference during deployment (1)</text><!--MD5=[6318992dae63db1d1649954aefa7e680]
link jarV2InRepo to jarV2InBucketFs--><path d="M580.71,303.12 C558.73,336.45 510.25,409.99 486.16,446.52 " fill="none" id="jarV2InRepo-&gt;jarV2InBucketFs" style="stroke: #A80036; stroke-width: 1.0;"/><polygon fill="#A80036" points="483.35,450.79,491.6496,445.4874,486.107,446.6188,484.9756,441.0762,483.35,450.79" style="stroke: #A80036; stroke-width: 1.0;"/><text fill="#000000" font-family="sans-serif" font-size="13" lengthAdjust="spacingAndGlyphs" textLength="178" x="557" y="348.0669">Copy during deployment (2)</text><!--MD5=[aa398ca6798b19fd2eb0c19adf25e363]
link jarV1InRepo to jarV1InBucketFS--><path d="M137.98,303.12 C163.26,336.45 219.01,409.99 246.72,446.52 " fill="none" id="jarV1InRepo-&gt;jarV1InBucketFS" style="stroke: #A80036; stroke-width: 1.0;"/><polygon fill="#A80036" points="249.95,450.79,247.695,441.2028,246.9271,446.8073,241.3226,446.0394,249.95,450.79" style="stroke: #A80036; stroke-width: 1.0;"/><text fill="#000000" font-family="sans-serif" font-size="13" lengthAdjust="spacingAndGlyphs" textLength="178" x="175" y="348.0669">Copy during deployment (2)</text><!--MD5=[4dea541d5ea18a4e36fb850047383775]
@startuml
storage "prostgres-virtual-schema release 2.0.2" {
  file installerInRepo as "postgresql-vs-extension.js"
  file jarV2InRepo as "postgresql-vs-2.0.2.jar"
}

storage "prostgres-virtual-schema release 1.0.0" {
  file "postgresql-vs-extension.js"
  file jarV1InRepo as "postgresql-vs-1.0.0.jar"
}

node "Extension Registry" {
  storage "Extension Definitions" {
    file installerInBucketFS as "postgresql-vs-extension.js"
  }
}

node "Exasol SaaS" {
  storage BucketFS {
    file jarV2InBucketFs as "postgresql-vs-2.0.2.jar"
    file jarV1InBucketFS as "postgresql-vs-1.0.0.jar"
  }
}

installerInBucketFS - -> installerInRepo : Update reference during deployment (1)
jarV2InRepo - -> jarV2InBucketFs : Copy during deployment (2)
jarV1InRepo - -> jarV1InBucketFS : Copy during deployment (2)
@enduml

PlantUML version 1.2020.02(Sun Mar 01 10:22:07 UTC 2020)
(GPL source distribution)
Java Runtime: OpenJDK Runtime Environment
JVM: OpenJDK 64-Bit Server VM
Java Version: 17.0.14+7
Operating System: Linux
Default Encoding: UTF-8
Language: en
Country: null
--></g></svg>