<?xml version="1.0" encoding="UTF-8" standalone="no"?><svg xmlns="http://www.w3.org/2000/svg" xmlns:xlink="http://www.w3.org/1999/xlink" contentScriptType="application/ecmascript" contentStyleType="text/css" height="554px" preserveAspectRatio="none" style="width:720px;height:554px;" version="1.1" viewBox="0 0 720 554" width="720px" zoomAndPan="magnify"><defs><filter height="300%" id="fttipsepbbnh" width="300%" x="-1" y="-1"><feGaussianBlur result="blurOut" stdDeviation="2.0"/><feColorMatrix in="blurOut" result="blurOut2" type="matrix" values="0 0 0 0 0 0 0 0 0 0 0 0 0 0 0 0 0 0 .4 0"/><feOffset dx="4.0" dy="4.0" in="blurOut2" result="blurOut3"/><feBlend in="SourceGraphic" in2="blurOut3" mode="normal"/></filter></defs><g><!--MD5=[815249f79c2c08157ac02b3106e03757]
cluster Database--><path d="M22,34 C22,24 365,24 365,24 C365,24 708,24 708,34 L708,532 C708,542 365,542 365,542 C365,542 22,542 22,532 L22,34 " fill="#FFFFFF" filter="url(#fttipsepbbnh)" style="stroke: #000000; stroke-width: 1.5;"/><path d="M22,34 C22,44 365,44 365,44 C365,44 708,44 708,34 " fill="none" style="stroke: #000000; stroke-width: 1.5;"/><text fill="#000000" font-family="sans-serif" font-size="14" font-weight="bold" lengthAdjust="spacingAndGlyphs" textLength="73" x="328.5" y="58.9951">Database</text><!--MD5=[9783b8c4a6a68441616f37e357eb25d4]
cluster BucketFS--><rect fill="#FFFFFF" filter="url(#fttipsepbbnh)" height="106" rx="35" ry="35" style="stroke: #000000; stroke-width: 1.5;" width="176" x="508" y="388"/><text fill="#000000" font-family="sans-serif" font-size="14" font-weight="bold" lengthAdjust="spacingAndGlyphs" textLength="73" x="559.5" y="407.9951">BucketFS</text><!--MD5=[95405fd6caeefb894a37221797a0499a]
cluster Adapter Schema--><rect fill="#FFFFFF" filter="url(#fttipsepbbnh)" height="421" rx="35" ry="35" style="stroke: #000000; stroke-width: 1.5;" width="438" x="46" y="97"/><text fill="#000000" font-family="sans-serif" font-size="14" font-weight="bold" lengthAdjust="spacingAndGlyphs" textLength="130" x="200" y="116.9951">Adapter Schema</text><!--MD5=[634d0ab12861df8c2cdb1030fc279d1c]
cluster Installation--><rect fill="#FFFFFF" filter="url(#fttipsepbbnh)" height="106" style="stroke: #000000; stroke-width: 1.5;" width="309" x="127" y="388"/><rect fill="#FFFFFF" height="10" style="stroke: #000000; stroke-width: 1.5;" width="15" x="416" y="393"/><rect fill="#FFFFFF" height="2" style="stroke: #000000; stroke-width: 1.5;" width="4" x="414" y="395"/><rect fill="#FFFFFF" height="2" style="stroke: #000000; stroke-width: 1.5;" width="4" x="414" y="399"/><text fill="#000000" font-family="sans-serif" font-size="14" font-weight="bold" lengthAdjust="spacingAndGlyphs" textLength="85" x="239" y="413.9951">Installation</text><!--MD5=[8047f06599978f899a50827ddc5b8c49]
cluster vs1--><rect fill="#FFFFFF" filter="url(#fttipsepbbnh)" height="106" style="stroke: #000000; stroke-width: 1.5;" width="390" x="70" y="140"/><rect fill="#FFFFFF" height="10" style="stroke: #000000; stroke-width: 1.5;" width="15" x="440" y="145"/><rect fill="#FFFFFF" height="2" style="stroke: #000000; stroke-width: 1.5;" width="4" x="438" y="147"/><rect fill="#FFFFFF" height="2" style="stroke: #000000; stroke-width: 1.5;" width="4" x="438" y="151"/><text fill="#000000" font-family="sans-serif" font-size="14" font-weight="bold" lengthAdjust="spacingAndGlyphs" textLength="67" x="231.5" y="165.9951">Instance</text><!--MD5=[fb624bb1e932381d0f66a16675df7cd4]
entity vsJar--><polygon fill="#FEFECE" filter="url(#fttipsepbbnh)" points="524.5,442,524.5,478.2969,667.5,478.2969,667.5,452,657.5,442,524.5,442" style="stroke: #000000; stroke-width: 1.5;"/><path d="M657.5,442 L657.5,452 L667.5,452 " fill="#FEFECE" style="stroke: #000000; stroke-width: 1.5;"/><text fill="#000000" font-family="sans-serif" font-size="14" lengthAdjust="spacingAndGlyphs" textLength="123" x="534.5" y="464.9951">postgres-vs-v1.jar</text><!--MD5=[de9b808e7e867ca09618cf9a2f88a202]
entity adapterScript--><rect fill="#FEFECE" filter="url(#fttipsepbbnh)" height="36.2969" style="stroke: #A80036; stroke-width: 1.5;" width="140" x="143" y="442"/><rect fill="#FEFECE" height="5" style="stroke: #A80036; stroke-width: 1.5;" width="10" x="138" y="447"/><rect fill="#FEFECE" height="5" style="stroke: #A80036; stroke-width: 1.5;" width="10" x="138" y="468.2969"/><text fill="#000000" font-family="sans-serif" font-size="14" lengthAdjust="spacingAndGlyphs" textLength="120" x="153" y="464.9951">ADAPTER SCRIPT</text><!--MD5=[663318d720fc671c65fea148c9de750b]
entity setScript--><rect fill="#FEFECE" filter="url(#fttipsepbbnh)" height="36.2969" style="stroke: #A80036; stroke-width: 1.5;" width="101" x="318.5" y="442"/><rect fill="#FEFECE" height="5" style="stroke: #A80036; stroke-width: 1.5;" width="10" x="313.5" y="447"/><rect fill="#FEFECE" height="5" style="stroke: #A80036; stroke-width: 1.5;" width="10" x="313.5" y="468.2969"/><text fill="#000000" font-family="sans-serif" font-size="14" lengthAdjust="spacingAndGlyphs" textLength="81" x="328.5" y="464.9951">SET SCRIPT</text><!--MD5=[45beb3168b2f09c373b860a9d57e1ef7]
entity conn--><rect fill="#FEFECE" filter="url(#fttipsepbbnh)" height="36.2969" style="stroke: #A80036; stroke-width: 1.5;" width="113" x="330.5" y="194"/><rect fill="#FEFECE" height="5" style="stroke: #A80036; stroke-width: 1.5;" width="10" x="325.5" y="199"/><rect fill="#FEFECE" height="5" style="stroke: #A80036; stroke-width: 1.5;" width="10" x="325.5" y="220.2969"/><text fill="#000000" font-family="sans-serif" font-size="14" lengthAdjust="spacingAndGlyphs" textLength="93" x="340.5" y="216.9951">CONNECTION</text><!--MD5=[507948c1688a9f375792d9376f7950f2]
entity vs--><rect fill="#FEFECE" filter="url(#fttipsepbbnh)" height="36.2969" style="stroke: #A80036; stroke-width: 1.5;" width="140" x="86" y="194"/><rect fill="#FEFECE" height="5" style="stroke: #A80036; stroke-width: 1.5;" width="10" x="81" y="199"/><rect fill="#FEFECE" height="5" style="stroke: #A80036; stroke-width: 1.5;" width="10" x="81" y="220.2969"/><text fill="#000000" font-family="sans-serif" font-size="14" lengthAdjust="spacingAndGlyphs" textLength="120" x="96" y="216.9951">VIRTUAL SCHEMA</text><!--MD5=[b632bb67bd2c9a0dbbaea0dccc760dc9]
link adapterScript to vsJar--><path d="M226.97,441.83 C242.7,422.85 270.14,393.94 301,380 C335.3,364.51 434.19,357.42 470,369 C511.92,382.55 551.62,415.83 574.88,438.16 " fill="none" id="adapterScript-&gt;vsJar" style="stroke: #A80036; stroke-width: 1.0;"/><polygon fill="#A80036" points="578.47,441.65,574.8048,432.5085,574.8848,438.1648,569.2285,438.2448,578.47,441.65" style="stroke: #A80036; stroke-width: 1.0;"/><text fill="#000000" font-family="sans-serif" font-size="13" lengthAdjust="spacingAndGlyphs" textLength="68" x="401" y="368.0669">references</text><!--MD5=[aa1c467b3f3243999853fa380ed10d72]
link setScript to vsJar--><path d="M419.66,460 C448.93,460 486.35,460 519.17,460 " fill="none" id="setScript-&gt;vsJar" style="stroke: #A80036; stroke-width: 1.0;"/><polygon fill="#A80036" points="524.4,460,515.4,456,519.4,460,515.4,464,524.4,460" style="stroke: #A80036; stroke-width: 1.0;"/><text fill="#000000" font-family="sans-serif" font-size="13" lengthAdjust="spacingAndGlyphs" textLength="68" x="438" y="453.0669">references</text><!--MD5=[7c75fee3fb8296c98006f8deb08aa423]
link vs to conn--><path d="M226.25,212 C257.74,212 294.57,212 325.02,212 " fill="none" id="vs-&gt;conn" style="stroke: #A80036; stroke-width: 1.0;"/><polygon fill="#A80036" points="330.24,212,321.24,208,325.24,212,321.24,216,330.24,212" style="stroke: #A80036; stroke-width: 1.0;"/><text fill="#000000" font-family="sans-serif" font-size="13" lengthAdjust="spacingAndGlyphs" textLength="68" x="244.25" y="205.0669">references</text><!--MD5=[b5ea1209e049a7e01f3cfb9f54143ec1]
link vs to adapterScript--><path d="M160.01,230.3 C170.11,273.88 196.58,388.15 207.83,436.68 " fill="none" id="vs-&gt;adapterScript" style="stroke: #A80036; stroke-width: 1.0;"/><polygon fill="#A80036" points="209,441.72,210.8655,432.0494,207.8715,436.849,203.072,433.855,209,441.72" style="stroke: #A80036; stroke-width: 1.0;"/><text fill="#000000" font-family="sans-serif" font-size="13" lengthAdjust="spacingAndGlyphs" textLength="68" x="182" y="313.5669">references</text><!--MD5=[d95c1fd6f98c0131389823c4d6559773]
link vs to setScript--><path d="M182.92,230.28 C204.93,245.22 236.06,268.27 259,293 C301.91,339.27 339.55,403.94 357.62,437.26 " fill="none" id="vs-&gt;setScript" style="stroke: #A80036; stroke-width: 1.0; stroke-dasharray: 7.0,7.0;"/><polygon fill="#A80036" points="360.14,441.94,359.3912,432.1196,357.7678,437.5386,352.3489,435.9152,360.14,441.94" style="stroke: #A80036; stroke-width: 1.0;"/><text fill="#000000" font-family="sans-serif" font-size="13" lengthAdjust="spacingAndGlyphs" textLength="110" x="294.5" y="306.0669">implicit reference</text><text fill="#000000" font-family="sans-serif" font-size="13" lengthAdjust="spacingAndGlyphs" textLength="127" x="286" y="321.1997">by name at runtime</text><!--MD5=[0ea854ad76dc418aa1d83f22d1b63604]
@startuml
database Database {
  storage BucketFS {
    file "postgres-vs-v1.jar" as vsJar
  }
  storage "Adapter Schema" {
    component Installation {
      component "ADAPTER SCRIPT" as adapterScript
      component "SET SCRIPT" as setScript
      adapterScript -> vsJar : references
      setScript -> vsJar : references
    }
    component "Instance" as vs1 {
      component "CONNECTION" as conn
      component "VIRTUAL SCHEMA" as vs
      vs -> conn : references
      vs -> adapterScript : references
      vs ...> setScript : implicit reference\nby name at runtime
    }
  }
}
@enduml

PlantUML version 1.2020.02(Sun Mar 01 10:22:07 UTC 2020)
(GPL source distribution)
Java Runtime: OpenJDK Runtime Environment
JVM: OpenJDK 64-Bit Server VM
Java Version: 17.0.14+7
Operating System: Linux
Default Encoding: UTF-8
Language: en
Country: null
--></g></svg>