<?xml version="1.0" encoding="UTF-8" standalone="no"?><svg xmlns="http://www.w3.org/2000/svg" xmlns:xlink="http://www.w3.org/1999/xlink" contentScriptType="application/ecmascript" contentStyleType="text/css" height="265px" preserveAspectRatio="none" style="width:324px;height:265px;" version="1.1" viewBox="0 0 324 265" width="324px" zoomAndPan="magnify"><defs><filter height="300%" id="fpi4690nmg78u" width="300%" x="-1" y="-1"><feGaussianBlur result="blurOut" stdDeviation="2.0"/><feColorMatrix in="blurOut" result="blurOut2" type="matrix" values="0 0 0 0 0 0 0 0 0 0 0 0 0 0 0 0 0 0 .4 0"/><feOffset dx="4.0" dy="4.0" in="blurOut2" result="blurOut3"/><feBlend in="SourceGraphic" in2="blurOut3" mode="normal"/></filter></defs><g><!--MD5=[3bb5226ce7b913d26a882bd02fb40814]
class BaseParameter--><rect fill="#FEFECE" filter="url(#fpi4690nmg78u)" height="112.0234" id="BaseParameter" style="stroke: #A80036; stroke-width: 1.5;" width="129" x="94" y="142"/><ellipse cx="109" cy="158" fill="#ADD1B2" rx="11" ry="11" style="stroke: #A80036; stroke-width: 1.0;"/><path d="M111.9688,163.6406 Q111.3906,163.9375 110.75,164.0781 Q110.1094,164.2344 109.4063,164.2344 Q106.9063,164.2344 105.5781,162.5938 Q104.2656,160.9375 104.2656,157.8125 Q104.2656,154.6875 105.5781,153.0313 Q106.9063,151.375 109.4063,151.375 Q110.1094,151.375 110.75,151.5313 Q111.4063,151.6875 111.9688,151.9844 L111.9688,154.7031 Q111.3438,154.125 110.75,153.8594 Q110.1563,153.5781 109.5313,153.5781 Q108.1875,153.5781 107.5,154.6563 Q106.8125,155.7188 106.8125,157.8125 Q106.8125,159.9063 107.5,160.9844 Q108.1875,162.0469 109.5313,162.0469 Q110.1563,162.0469 110.75,161.7813 Q111.3438,161.5 111.9688,160.9219 L111.9688,163.6406 Z "/><text fill="#000000" font-family="sans-serif" font-size="12" lengthAdjust="spacingAndGlyphs" textLength="97" x="123" y="162.1543">BaseParameter</text><line style="stroke: #A80036; stroke-width: 1.5;" x1="95" x2="222" y1="174" y2="174"/><text fill="#000000" font-family="sans-serif" font-size="11" lengthAdjust="spacingAndGlyphs" textLength="51" x="100" y="188.2104">id: string</text><text fill="#000000" font-family="sans-serif" font-size="11" lengthAdjust="spacingAndGlyphs" textLength="73" x="100" y="201.0151">name: string</text><text fill="#000000" font-family="sans-serif" font-size="11" lengthAdjust="spacingAndGlyphs" textLength="80" x="100" y="213.8198">required: bool</text><text fill="#000000" font-family="sans-serif" font-size="11" lengthAdjust="spacingAndGlyphs" textLength="65" x="100" y="226.6245">type: string</text><text fill="#000000" font-family="sans-serif" font-size="11" lengthAdjust="spacingAndGlyphs" textLength="12" x="100" y="239.4292">...</text><line style="stroke: #A80036; stroke-width: 1.5;" x1="95" x2="222" y1="246.0234" y2="246.0234"/><!--MD5=[e1acfe061735960cccfd08a7f97532c2]
class StringParameter--><rect fill="#FEFECE" filter="url(#fpi4690nmg78u)" height="73.6094" id="StringParameter" style="stroke: #A80036; stroke-width: 1.5;" width="135" x="6" y="8"/><ellipse cx="21" cy="24" fill="#ADD1B2" rx="11" ry="11" style="stroke: #A80036; stroke-width: 1.0;"/><path d="M23.9688,29.6406 Q23.3906,29.9375 22.75,30.0781 Q22.1094,30.2344 21.4063,30.2344 Q18.9063,30.2344 17.5781,28.5938 Q16.2656,26.9375 16.2656,23.8125 Q16.2656,20.6875 17.5781,19.0313 Q18.9063,17.375 21.4063,17.375 Q22.1094,17.375 22.75,17.5313 Q23.4063,17.6875 23.9688,17.9844 L23.9688,20.7031 Q23.3438,20.125 22.75,19.8594 Q22.1563,19.5781 21.5313,19.5781 Q20.1875,19.5781 19.5,20.6563 Q18.8125,21.7188 18.8125,23.8125 Q18.8125,25.9063 19.5,26.9844 Q20.1875,28.0469 21.5313,28.0469 Q22.1563,28.0469 22.75,27.7813 Q23.3438,27.5 23.9688,26.9219 L23.9688,29.6406 Z "/><text fill="#000000" font-family="sans-serif" font-size="12" lengthAdjust="spacingAndGlyphs" textLength="103" x="35" y="28.1543">StringParameter</text><line style="stroke: #A80036; stroke-width: 1.5;" x1="7" x2="140" y1="40" y2="40"/><text fill="#000000" font-family="sans-serif" font-size="11" lengthAdjust="spacingAndGlyphs" textLength="74" x="12" y="54.2104">regex: RegEx</text><text fill="#000000" font-family="sans-serif" font-size="11" lengthAdjust="spacingAndGlyphs" textLength="74" x="12" y="67.0151">type = string</text><line style="stroke: #A80036; stroke-width: 1.5;" x1="7" x2="140" y1="73.6094" y2="73.6094"/><!--MD5=[2a78130123276c880ff9fa59ee5f540a]
class SelectParameter--><rect fill="#FEFECE" filter="url(#fpi4690nmg78u)" height="73.6094" id="SelectParameter" style="stroke: #A80036; stroke-width: 1.5;" width="137" x="176" y="8"/><ellipse cx="191" cy="24" fill="#ADD1B2" rx="11" ry="11" style="stroke: #A80036; stroke-width: 1.0;"/><path d="M193.9688,29.6406 Q193.3906,29.9375 192.75,30.0781 Q192.1094,30.2344 191.4063,30.2344 Q188.9063,30.2344 187.5781,28.5938 Q186.2656,26.9375 186.2656,23.8125 Q186.2656,20.6875 187.5781,19.0313 Q188.9063,17.375 191.4063,17.375 Q192.1094,17.375 192.75,17.5313 Q193.4063,17.6875 193.9688,17.9844 L193.9688,20.7031 Q193.3438,20.125 192.75,19.8594 Q192.1563,19.5781 191.5313,19.5781 Q190.1875,19.5781 189.5,20.6563 Q188.8125,21.7188 188.8125,23.8125 Q188.8125,25.9063 189.5,26.9844 Q190.1875,28.0469 191.5313,28.0469 Q192.1563,28.0469 192.75,27.7813 Q193.3438,27.5 193.9688,26.9219 L193.9688,29.6406 Z "/><text fill="#000000" font-family="sans-serif" font-size="12" lengthAdjust="spacingAndGlyphs" textLength="105" x="205" y="28.1543">SelectParameter</text><line style="stroke: #A80036; stroke-width: 1.5;" x1="177" x2="312" y1="40" y2="40"/><text fill="#000000" font-family="sans-serif" font-size="11" lengthAdjust="spacingAndGlyphs" textLength="80" x="182" y="54.2104">options: array</text><text fill="#000000" font-family="sans-serif" font-size="11" lengthAdjust="spacingAndGlyphs" textLength="75" x="182" y="67.0151">type = select</text><line style="stroke: #A80036; stroke-width: 1.5;" x1="177" x2="312" y1="73.6094" y2="73.6094"/><!--MD5=[e4cbe753ea45b319325cefd151433ffa]
reverse link StringParameter to BaseParameter--><path d="M103.87,99.95 C111.55,113.59 119.8,128.25 127.51,141.95 " fill="none" id="StringParameter&lt;-BaseParameter" style="stroke: #A80036; stroke-width: 1.0;"/><polygon fill="none" points="97.57,103.03,93.86,82.17,109.77,96.16,97.57,103.03" style="stroke: #A80036; stroke-width: 1.0;"/><!--MD5=[d371fa7bfa8a025da2b650b6f3c6eef3]
reverse link SelectParameter to BaseParameter--><path d="M213.78,99.95 C206.01,113.59 197.65,128.25 189.86,141.95 " fill="none" id="SelectParameter&lt;-BaseParameter" style="stroke: #A80036; stroke-width: 1.0;"/><polygon fill="none" points="207.92,96.08,223.9,82.17,220.09,103.01,207.92,96.08" style="stroke: #A80036; stroke-width: 1.0;"/><!--MD5=[c02698b1edb1eab661c6c93f8fbbd406]
@startuml
class BaseParameter{
  id: string
  name: string
  required: bool
  type: string
  ...
}

class StringParameter{
  regex: RegEx
  type = string
}

class SelectParameter{
  options: array
  type = select
}

StringParameter <|- - BaseParameter
SelectParameter <|- - BaseParameter
@enduml

PlantUML version 1.2020.02(Sun Mar 01 10:22:07 UTC 2020)
(GPL source distribution)
Java Runtime: OpenJDK Runtime Environment
JVM: OpenJDK 64-Bit Server VM
Java Version: 17.0.14+7
Operating System: Linux
Default Encoding: UTF-8
Language: en
Country: null
--></g></svg>