<?xml version="1.0" encoding="UTF-8" standalone="no"?><svg xmlns="http://www.w3.org/2000/svg" xmlns:xlink="http://www.w3.org/1999/xlink" contentScriptType="application/ecmascript" contentStyleType="text/css" height="391px" preserveAspectRatio="none" style="width:430px;height:391px;" version="1.1" viewBox="0 0 430 391" width="430px" zoomAndPan="magnify"><defs><filter height="300%" id="f1w42x21hxsezr" width="300%" x="-1" y="-1"><feGaussianBlur result="blurOut" stdDeviation="2.0"/><feColorMatrix in="blurOut" result="blurOut2" type="matrix" values="0 0 0 0 0 0 0 0 0 0 0 0 0 0 0 0 0 0 .4 0"/><feOffset dx="4.0" dy="4.0" in="blurOut2" result="blurOut3"/><feBlend in="SourceGraphic" in2="blurOut3" mode="normal"/></filter></defs><g><!--MD5=[f9a29335b499db729be669fd1bd54958]
class Account--><rect fill="#FEFECE" filter="url(#f1w42x21hxsezr)" height="48" id="Account" style="stroke: #A80036; stroke-width: 1.5;" width="163" x="181" y="8"/><ellipse cx="196" cy="24" fill="#ADD1B2" rx="11" ry="11" style="stroke: #A80036; stroke-width: 1.0;"/><path d="M198.9688,29.6406 Q198.3906,29.9375 197.75,30.0781 Q197.1094,30.2344 196.4063,30.2344 Q193.9063,30.2344 192.5781,28.5938 Q191.2656,26.9375 191.2656,23.8125 Q191.2656,20.6875 192.5781,19.0313 Q193.9063,17.375 196.4063,17.375 Q197.1094,17.375 197.75,17.5313 Q198.4063,17.6875 198.9688,17.9844 L198.9688,20.7031 Q198.3438,20.125 197.75,19.8594 Q197.1563,19.5781 196.5313,19.5781 Q195.1875,19.5781 194.5,20.6563 Q193.8125,21.7188 193.8125,23.8125 Q193.8125,25.9063 194.5,26.9844 Q195.1875,28.0469 196.5313,28.0469 Q197.1563,28.0469 197.75,27.7813 Q198.3438,27.5 198.9688,26.9219 L198.9688,29.6406 Z "/><text fill="#000000" font-family="sans-serif" font-size="12" lengthAdjust="spacingAndGlyphs" textLength="131" x="210" y="28.1543">Exasol SaaS Account</text><line style="stroke: #A80036; stroke-width: 1.5;" x1="182" x2="343" y1="40" y2="40"/><line style="stroke: #A80036; stroke-width: 1.5;" x1="182" x2="343" y1="48" y2="48"/><!--MD5=[ed3afe56f065d25b4329669e73deaf58]
class Database--><rect fill="#FEFECE" filter="url(#f1w42x21hxsezr)" height="48" id="Database" style="stroke: #A80036; stroke-width: 1.5;" width="93" x="216" y="116"/><ellipse cx="231" cy="132" fill="#ADD1B2" rx="11" ry="11" style="stroke: #A80036; stroke-width: 1.0;"/><path d="M233.9688,137.6406 Q233.3906,137.9375 232.75,138.0781 Q232.1094,138.2344 231.4063,138.2344 Q228.9063,138.2344 227.5781,136.5938 Q226.2656,134.9375 226.2656,131.8125 Q226.2656,128.6875 227.5781,127.0313 Q228.9063,125.375 231.4063,125.375 Q232.1094,125.375 232.75,125.5313 Q233.4063,125.6875 233.9688,125.9844 L233.9688,128.7031 Q233.3438,128.125 232.75,127.8594 Q232.1563,127.5781 231.5313,127.5781 Q230.1875,127.5781 229.5,128.6563 Q228.8125,129.7188 228.8125,131.8125 Q228.8125,133.9063 229.5,134.9844 Q230.1875,136.0469 231.5313,136.0469 Q232.1563,136.0469 232.75,135.7813 Q233.3438,135.5 233.9688,134.9219 L233.9688,137.6406 Z "/><text fill="#000000" font-family="sans-serif" font-size="12" lengthAdjust="spacingAndGlyphs" textLength="61" x="245" y="136.1543">Database</text><line style="stroke: #A80036; stroke-width: 1.5;" x1="217" x2="308" y1="148" y2="148"/><line style="stroke: #A80036; stroke-width: 1.5;" x1="217" x2="308" y1="156" y2="156"/><!--MD5=[0e52e9688cc90300983c8cb354940feb]
class Installation--><rect fill="#FEFECE" filter="url(#f1w42x21hxsezr)" height="48" id="Installation" style="stroke: #A80036; stroke-width: 1.5;" width="289" x="6" y="224"/><ellipse cx="21" cy="240" fill="#ADD1B2" rx="11" ry="11" style="stroke: #A80036; stroke-width: 1.0;"/><path d="M23.9688,245.6406 Q23.3906,245.9375 22.75,246.0781 Q22.1094,246.2344 21.4063,246.2344 Q18.9063,246.2344 17.5781,244.5938 Q16.2656,242.9375 16.2656,239.8125 Q16.2656,236.6875 17.5781,235.0313 Q18.9063,233.375 21.4063,233.375 Q22.1094,233.375 22.75,233.5313 Q23.4063,233.6875 23.9688,233.9844 L23.9688,236.7031 Q23.3438,236.125 22.75,235.8594 Q22.1563,235.5781 21.5313,235.5781 Q20.1875,235.5781 19.5,236.6563 Q18.8125,237.7188 18.8125,239.8125 Q18.8125,241.9063 19.5,242.9844 Q20.1875,244.0469 21.5313,244.0469 Q22.1563,244.0469 22.75,243.7813 Q23.3438,243.5 23.9688,242.9219 L23.9688,245.6406 Z "/><text fill="#000000" font-family="sans-serif" font-size="12" lengthAdjust="spacingAndGlyphs" textLength="257" x="35" y="244.1543">Extension-Installation (UDFs, SCRIPTs, ...)</text><line style="stroke: #A80036; stroke-width: 1.5;" x1="7" x2="294" y1="256" y2="256"/><line style="stroke: #A80036; stroke-width: 1.5;" x1="7" x2="294" y1="264" y2="264"/><!--MD5=[dbfd7680984eb54d794e10dee7f3936a]
class Instance--><rect fill="#FEFECE" filter="url(#f1w42x21hxsezr)" height="48" id="Instance" style="stroke: #A80036; stroke-width: 1.5;" width="258" x="21.5" y="332"/><ellipse cx="36.5" cy="348" fill="#ADD1B2" rx="11" ry="11" style="stroke: #A80036; stroke-width: 1.0;"/><path d="M39.4688,353.6406 Q38.8906,353.9375 38.25,354.0781 Q37.6094,354.2344 36.9063,354.2344 Q34.4063,354.2344 33.0781,352.5938 Q31.7656,350.9375 31.7656,347.8125 Q31.7656,344.6875 33.0781,343.0313 Q34.4063,341.375 36.9063,341.375 Q37.6094,341.375 38.25,341.5313 Q38.9063,341.6875 39.4688,341.9844 L39.4688,344.7031 Q38.8438,344.125 38.25,343.8594 Q37.6563,343.5781 37.0313,343.5781 Q35.6875,343.5781 35,344.6563 Q34.3125,345.7188 34.3125,347.8125 Q34.3125,349.9063 35,350.9844 Q35.6875,352.0469 37.0313,352.0469 Q37.6563,352.0469 38.25,351.7813 Q38.8438,351.5 39.4688,350.9219 L39.4688,353.6406 Z "/><text fill="#000000" font-family="sans-serif" font-size="12" lengthAdjust="spacingAndGlyphs" textLength="226" x="50.5" y="352.1543">Extension-Instance (Virtual schema)</text><line style="stroke: #A80036; stroke-width: 1.5;" x1="22.5" x2="278.5" y1="364" y2="364"/><line style="stroke: #A80036; stroke-width: 1.5;" x1="22.5" x2="278.5" y1="372" y2="372"/><!--MD5=[85691072851d8f9808b59274f8d47a2f]
class BucketFs--><rect fill="#FEFECE" filter="url(#f1w42x21hxsezr)" height="48" id="BucketFs" style="stroke: #A80036; stroke-width: 1.5;" width="89" x="330" y="224"/><ellipse cx="345" cy="240" fill="#ADD1B2" rx="11" ry="11" style="stroke: #A80036; stroke-width: 1.0;"/><path d="M347.9688,245.6406 Q347.3906,245.9375 346.75,246.0781 Q346.1094,246.2344 345.4063,246.2344 Q342.9063,246.2344 341.5781,244.5938 Q340.2656,242.9375 340.2656,239.8125 Q340.2656,236.6875 341.5781,235.0313 Q342.9063,233.375 345.4063,233.375 Q346.1094,233.375 346.75,233.5313 Q347.4063,233.6875 347.9688,233.9844 L347.9688,236.7031 Q347.3438,236.125 346.75,235.8594 Q346.1563,235.5781 345.5313,235.5781 Q344.1875,235.5781 343.5,236.6563 Q342.8125,237.7188 342.8125,239.8125 Q342.8125,241.9063 343.5,242.9844 Q344.1875,244.0469 345.5313,244.0469 Q346.1563,244.0469 346.75,243.7813 Q347.3438,243.5 347.9688,242.9219 L347.9688,245.6406 Z "/><text fill="#000000" font-family="sans-serif" font-size="12" lengthAdjust="spacingAndGlyphs" textLength="57" x="359" y="244.1543">BucketFs</text><line style="stroke: #A80036; stroke-width: 1.5;" x1="331" x2="418" y1="256" y2="256"/><line style="stroke: #A80036; stroke-width: 1.5;" x1="331" x2="418" y1="264" y2="264"/><!--MD5=[8a9d5432f74a74c97968034d47c7ab5e]
reverse link Account to Database--><path d="M262.5,69.34 C262.5,84.68 262.5,102.1 262.5,115.68 " fill="none" id="Account&lt;-Database" style="stroke: #A80036; stroke-width: 1.0;"/><polygon fill="#FFFFFF" points="262.5,56,258.5,62,262.5,68,266.5,62,262.5,56" style="stroke: #A80036; stroke-width: 1.0;"/><text fill="#000000" font-family="sans-serif" font-size="13" lengthAdjust="spacingAndGlyphs" textLength="8" x="253.475" y="76.1558">1</text><text fill="#000000" font-family="sans-serif" font-size="13" lengthAdjust="spacingAndGlyphs" textLength="7" x="254.6469" y="105.007">*</text><!--MD5=[2250868e314eed9b93ae7d9d89546a33]
reverse link Database to Installation--><path d="M228.51,173.17 C211.31,189.45 190.81,208.85 175.14,223.68 " fill="none" id="Database&lt;-Installation" style="stroke: #A80036; stroke-width: 1.0;"/><polygon fill="#FFFFFF" points="238.2,164,231.0921,165.2158,229.4806,172.2445,236.5885,171.0287,238.2,164" style="stroke: #A80036; stroke-width: 1.0;"/><text fill="#000000" font-family="sans-serif" font-size="13" lengthAdjust="spacingAndGlyphs" textLength="8" x="222.9481" y="184.1558">1</text><text fill="#000000" font-family="sans-serif" font-size="13" lengthAdjust="spacingAndGlyphs" textLength="7" x="173.2929" y="213.007">*</text><!--MD5=[90da055de9d6e6fcd94b050b4db6f54b]
link Database to BucketFs--><path d="M286.8,164 C305.46,181.66 331.12,205.94 349.86,223.68 " fill="none" id="Database-BucketFs" style="stroke: #A80036; stroke-width: 1.0;"/><text fill="#000000" font-family="sans-serif" font-size="13" lengthAdjust="spacingAndGlyphs" textLength="8" x="284.0019" y="184.1558">1</text><text fill="#000000" font-family="sans-serif" font-size="13" lengthAdjust="spacingAndGlyphs" textLength="8" x="334.879" y="213.007">1</text><!--MD5=[bc4c4eaabc0141b095545bbe63705620]
reverse link Installation to Instance--><path d="M150.5,285.34 C150.5,300.68 150.5,318.1 150.5,331.68 " fill="none" id="Installation&lt;-Instance" style="stroke: #A80036; stroke-width: 1.0;"/><polygon fill="#FFFFFF" points="150.5,272,146.5,278,150.5,284,154.5,278,150.5,272" style="stroke: #A80036; stroke-width: 1.0;"/><text fill="#000000" font-family="sans-serif" font-size="13" lengthAdjust="spacingAndGlyphs" textLength="8" x="141.475" y="292.1558">1</text><text fill="#000000" font-family="sans-serif" font-size="13" lengthAdjust="spacingAndGlyphs" textLength="7" x="142.6469" y="321.007">*</text><!--MD5=[4c167618549735f0965fe8b9118cea0d]
@startuml
class Account as "Exasol SaaS Account"
class Database
class Installation as "Extension-Installation (UDFs, SCRIPTs, ...)"
class Instance as "Extension-Instance (Virtual schema)"
Account "1" o- - "*" Database
Database "1" o- - "*" Installation
Database "1" - - "1" BucketFs
Installation "1" o- - "*" Instance
@enduml

PlantUML version 1.2020.02(Sun Mar 01 10:22:07 UTC 2020)
(GPL source distribution)
Java Runtime: OpenJDK Runtime Environment
JVM: OpenJDK 64-Bit Server VM
Java Version: 17.0.14+7
Operating System: Linux
Default Encoding: UTF-8
Language: en
Country: null
--></g></svg>